<svg width="50" height="50" viewBox="0 0 50 50" fill="none" xmlns="http://www.w3.org/2000/svg">
<g clip-path="url(#clip0_159_28)">
<path d="M23.0157 3.96875C18.4636 3.96875 14.0138 5.3186 10.2289 7.84759C6.44395 10.3766 3.49397 13.9711 1.75197 18.1767C0.0099721 22.3823 -0.445815 27.01 0.44225 31.4746C1.33031 35.9392 3.52235 40.0402 6.74115 43.259C9.95995 46.4778 14.0609 48.6698 18.5255 49.5579C22.9901 50.4459 27.6178 49.9901 31.8234 48.2481C36.029 46.5061 39.6235 43.5562 42.1525 39.7712C44.6815 35.9863 46.0314 31.5365 46.0314 26.9844H23.0157V3.96875Z" fill="#373737"/>
<path d="M50.0001 23.0157C50.0001 19.9932 49.4048 17.0003 48.2481 14.208C47.0915 11.4156 45.3962 8.87834 43.259 6.74113C41.1218 4.60393 38.5845 2.90861 35.7921 1.75196C32.9997 0.595318 30.0069 -3.2426e-07 26.9844 0V23.0157H50.0001Z" fill="#B7B7B7"/>
</g>
<defs>
<clipPath id="clip0_159_28">
<rect width="50" height="50" fill="white"/>
</clipPath>
</defs>
</svg>
